PathFileType	4	(X/Y/Z)	./resultDataOpenSim/trcMotMarkerGrf/sub09/qtm-03-03.trc
DataRate	CameraRate	NumFrames	NumMarkers	Units	OrigDataRate	OrigDataStartFrame	OrigNumFrames
250.000000	250.000000	8	24	m	250.000000	240	478
Frame#	Time	L.Toe.Tip			R.Toe.Tip			L.Ankle.Lat			R.Ankle.Lat			L.Ankle.Med			R.Ankle.Med			L.Heel			R.Heel			L.Knee.Lat			R.Knee.Lat			L.Knee.Med			R.Knee.Med			L.Thigh.Upper			R.Thigh.Upper			L.ASIS			R.ASIS			V.Sacral			L.Acromium			R.Acromium			C7			L.Elbow			R.Elbow			L.Wrist.Lat			R.Wrist.Lat
		X1	Y1	Z1	X2	Y2	Z2	X3	Y3	Z3	X4	Y4	Z4	X5	Y5	Z5	X6	Y6	Z6	X7	Y7	Z7	X8	Y8	Z8	X9	Y9	Z9	X10	Y10	Z10	X11	Y11	Z11	X12	Y12	Z12	X13	Y13	Z13	X14	Y14	Z14	X15	Y15	Z15	X16	Y16	Z16	X17	Y17	Z17	X18	Y18	Z18	X19	Y19	Z19	X20	Y20	Z20	X21	Y21	Z21	X22	Y22	Z22	X23	Y23	Z23	X24	Y24	Z24

240	0.956	0.10741743	-0.010862257	0.027804694	0.35359299	0.11071628	0.14097307	-0.033852182	0.043539934	-0.022708366	0.21134938	0.14322411	0.15977895	-0.013783857	0.061831883	0.073020979	0.23647782	0.17530109	0.067788158	-0.11032056	0.021516466	0.019115741	0.14480023	0.12682823	0.10430366	0.08164745	0.44378433	-0.07309709	0.36424796	0.56291609	0.21687276	0.076739972	0.44573625	0.051528683	0.38326225	0.54438338	0.081075159	0.12734425	0.86666127	-0.123743	0.13079787	0.87399876	0.24601746	0.21945355	0.94625269	-0.064024022	0.20744744	0.95762049	0.17613072	0.052424113	1.0119985	0.052978898	0.23627027	1.4038515	-0.10346799	0.18730258	1.4142931	0.22220496	0.14802342	1.4606924	0.051266827	0.11659256	1.0518622	-0.18962457	0.0094433058	1.0983163	0.29081785	0.33363747	0.88764389	-0.17455963	0.099746323	0.84110018	0.3133437
241	0.96	0.10738831	-0.010849626	0.027863285	0.37388511	0.11054026	0.14090811	-0.033681443	0.044166203	-0.02264073	0.23093048	0.13906625	0.15967867	-0.01320151	0.062447888	0.07321832	0.25494839	0.1720383	0.067866667	-0.11011599	0.022460132	0.019589715	0.16444319	0.12111137	0.10447351	0.082413183	0.44428071	-0.073158846	0.37376025	0.56302037	0.2164352	0.077855306	0.4462266	0.051574239	0.39095634	0.54557163	0.081553264	0.13257625	0.86666826	-0.12341987	0.13691871	0.87399651	0.24630628	0.22524991	0.94592987	-0.064057496	0.2134158	0.95749607	0.17613659	0.05831697	1.0117718	0.053353225	0.24219223	1.4037239	-0.10326416	0.19357301	1.4140107	0.22245443	0.15397238	1.4604779	0.051250734	0.12387588	1.0510122	-0.18924802	0.015674359	1.0981783	0.29098601	0.34297432	0.88942841	-0.17329677	0.10506873	0.8407497	0.31378296
242	0.964	0.10737812	-0.010820931	0.027886963	0.39411237	0.11037157	0.14095787	-0.033550023	0.044792175	-0.022437856	0.25016112	0.1351334	0.15966114	-0.01263048	0.063077274	0.073491932	0.27353437	0.16883719	0.067953911	-0.10989196	0.023413092	0.020133758	0.18436564	0.11550241	0.10444483	0.083146883	0.4447686	-0.073219178	0.38503122	0.5620725	0.21495114	0.079018762	0.4466667	0.051635262	0.39865323	0.5465587	0.081938971	0.1377673	0.86652954	-0.12326729	0.14304276	0.87394072	0.24660682	0.2310921	0.94554859	-0.064067409	0.21940297	0.95729645	0.17615273	0.064180811	1.011463	0.053602523	0.24812856	1.403537	-0.10306049	0.1998201	1.4136748	0.22271202	0.15993044	1.460221	0.051392815	0.13106337	1.0501085	-0.18870104	0.021934561	1.097972	0.29118827	0.35226894	0.89115606	-0.17202962	0.11063662	0.8403853	0.31431462
243	0.968	0.10744228	-0.010783531	0.027821946	0.41425204	0.11024266	0.14115681	-0.033476813	0.045431957	-0.022093445	0.26912585	0.13140498	0.15970571	-0.01206556	0.063704861	0.073806882	0.29222086	0.16571435	0.068060992	-0.10966557	0.024379214	0.020751062	0.20448802	0.11004899	0.10428651	0.083878307	0.4452598	-0.07329062	0.39699333	0.56097809	0.21275627	0.080373604	0.44706668	0.051661821	0.40649431	0.54736475	0.08209087	0.14295335	0.86625081	-0.12326666	0.14918065	0.87383014	0.24693121	0.23699854	0.94511241	-0.064042046	0.22542145	0.95703077	0.17618755	0.069980797	1.0110714	0.053607315	0.25408075	1.4032891	-0.10284919	0.20606238	1.4132854	0.22298031	0.16597378	1.459884	0.051690279	0.13833989	1.0491527	-0.18821356	0.028216533	1.0976938	0.29141992	0.36151759	0.89282417	-0.17076199	0.11632801	0.83997686	0.31488491
244	0.972	0.10757023	-0.010753903	0.027687462	0.43428804	0.11019969	0.14153221	-0.033455686	0.04609347	-0.021648777	0.2881115	0.1278254	0.15975533	-0.011502694	0.064333331	0.07413698	0.3110041	0.16268595	0.068187429	-0.10944466	0.025359028	0.021434353	0.22474351	0.10479259	0.10405035	0.084662605	0.44575953	-0.073388928	0.40809647	0.56060047	0.21063454	0.081992042	0.4474584	0.051544794	0.41452337	0.54800124	0.081978619	0.14816016	0.86588126	-0.12330577	0.15532817	0.87365983	0.24727968	0.24296211	0.94461575	-0.063976932	0.23147325	0.95670236	0.17624284	0.075741205	1.0106175	0.053393906	0.26004703	1.4029826	-0.10262684	0.21232889	1.4128336	0.22326103	0.17213232	1.4594347	0.052044636	0.14579819	1.0481512	-0.18790382	0.034519472	1.09734	0.29167747	0.37071753	0.8944329	-0.16949379	0.12208872	0.83950884	0.31547161
245	0.976	0.10769944	-0.010744213	0.027546753	0.45421468	0.11025304	0.1420912	-0.033479494	0.046776995	-0.021129441	0.30728022	0.12438069	0.15979008	-0.010931255	0.064977487	0.074468593	0.32989173	0.15976485	0.068317736	-0.10922477	0.026353015	0.022172535	0.24511029	0.099748055	0.10374401	0.085532138	0.44625863	-0.073521709	0.41749009	0.56086014	0.2092544	0.083808557	0.44787836	0.051213361	0.42255097	0.54845247	0.081796862	0.15339135	0.86547161	-0.12327631	0.16145366	0.87341832	0.24763489	0.24891453	0.94403631	-0.063894232	0.23755709	0.95630381	0.17631554	0.081518359	1.0101471	0.053094701	0.26602626	1.402623	-0.10239492	0.21863526	1.4123118	0.22355107	0.17834923	1.4588983	0.05239672	0.15333586	1.0471081	-0.1876515	0.04084812	1.096911	0.29196028	0.37987008	0.89598215	-0.16822079	0.12790708	0.83897579	0.31607493
246	0.98	0.10778784	-0.010750009	0.027439411	0.47404035	0.11038156	0.1428215	-0.033556855	0.047486715	-0.020529296	0.3266201	0.12108755	0.15982888	-0.010347576	0.065639291	0.074799182	0.34888316	0.15696464	0.068433704	-0.10899483	0.027363186	0.022953124	0.26560084	0.094904655	0.10334185	0.086471245	0.44674318	-0.0736816	0.42523945	0.56117165	0.20881298	0.08568957	0.44836193	0.050745215	0.43029488	0.54869082	0.081822611	0.15863671	0.86503608	-0.12315627	0.16753675	0.87309662	0.24798713	0.25475634	0.94334405	-0.06383865	0.24367443	0.95582369	0.17640193	0.087315194	1.0096694	0.052739082	0.27201936	1.4022145	-0.10215633	0.2249829	1.4117191	0.22385038	0.18453903	1.4583235	0.052750272	0.16078616	1.0460212	-0.187256	0.047203621	1.0964111	0.29227089	0.38897876	0.89747126	-0.16693923	0.13378441	0.83838	0.31670224
247	0.984	0.10783286	-0.010752751	0.027374998	0.49378998	0.110573	0.14370186	-0.033692929	0.048234931	-0.019848731	0.34607277	0.11795807	0.15989655	-0.0097563475	0.066307687	0.075131114	0.3679538	0.15430635	0.068532577	-0.10874866	0.028393408	0.023756475	0.28623762	0.090249123	0.10280272	0.087444508	0.44720735	-0.073851026	0.43194885	0.56126147	0.20907092	0.087370235	0.44892941	0.050296348	0.43765208	0.54870272	0.082160996	0.16388985	0.86455968	-0.12298288	0.17359902	0.87270055	0.24834886	0.26046682	0.94252777	-0.063841169	0.24982839	0.95525495	0.17649831	0.093124903	1.0091423	0.052321194	0.2780276	1.4017565	-0.10191324	0.23136444	1.411058	0.22416468	0.19068201	1.4577185	0.053109519	0.16810018	1.044885	-0.18666007	0.053578365	1.0958449	0.292613	0.39804364	0.89889862	-0.16565045	0.1397213	0.83772746	0.31735703
